<svg width="693" height="660" xmlns="http://www.w3.org/2000/svg" xmlns:xlink="http://www.w3.org/1999/xlink" xml:space="preserve" overflow="hidden"><g transform="translate(-242 -320)"><g><rect x="373.5" y="703.5" width="162" height="163" fill="#002878" fill-opacity="0.2"/><path d="M535.5 703.5 589.5 649.5 589.5 812.5 535.5 866.5Z" fill="#002060" fill-rule="evenodd" fill-opacity="0.2"/><path d="M373.5 703.5 427.5 649.5 589.5 649.5 535.5 703.5Z" fill="#325292" fill-rule="evenodd" fill-opacity="0.2"/><path d="M373.5 703.5 427.5 649.5 589.5 649.5 589.5 812.5 535.5 866.5 373.5 866.5ZM373.5 703.5 535.5 703.5 589.5 649.5M535.5 703.5 535.5 866.5" stroke="#FFC000" stroke-width="4.58333" stroke-linecap="butt" stroke-linejoin="miter" stroke-miterlimit="8" stroke-opacity="0.501961" fill="none" fill-rule="evenodd"/><rect x="535.5" y="703.5" width="162" height="163" fill="#002878" fill-opacity="0.2"/><path d="M697.5 703.5 751.5 649.5 751.5 812.5 697.5 866.5Z" fill="#002060" fill-rule="evenodd" fill-opacity="0.2"/><path d="M535.5 703.5 589.5 649.5 751.5 649.5 697.5 703.5Z" fill="#325292" fill-rule="evenodd" fill-opacity="0.2"/><path d="M535.5 703.5 589.5 649.5 751.5 649.5 751.5 812.5 697.5 866.5 535.5 866.5ZM535.5 703.5 697.5 703.5 751.5 649.5M697.5 703.5 697.5 866.5" stroke="#FFC000" stroke-width="4.58333" stroke-linecap="butt" stroke-linejoin="miter" stroke-miterlimit="8" stroke-opacity="0.501961" fill="none" fill-rule="evenodd"/><rect x="373.5" y="541.5" width="162" height="163" fill="#002878" fill-opacity="0.2"/><path d="M535.5 541.5 589.5 487.5 589.5 650.5 535.5 704.5Z" fill="#002060" fill-rule="evenodd" fill-opacity="0.2"/><path d="M373.5 541.5 427.5 487.5 589.5 487.5 535.5 541.5Z" fill="#325292" fill-rule="evenodd" fill-opacity="0.2"/><path d="M373.5 541.5 427.5 487.5 589.5 487.5 589.5 650.5 535.5 704.5 373.5 704.5ZM373.5 541.5 535.5 541.5 589.5 487.5M535.5 541.5 535.5 704.5" stroke="#FFC000" stroke-width="4.58333" stroke-linecap="butt" stroke-linejoin="miter" stroke-miterlimit="8" stroke-opacity="0.501961" fill="none" fill-rule="evenodd"/><rect x="535.5" y="541.5" width="162" height="163" fill="#002878" fill-opacity="0.2"/><path d="M697.5 541.5 751.499 487.5 751.499 650.5 697.5 704.5Z" fill="#002060" fill-rule="evenodd" fill-opacity="0.2"/><path d="M535.5 541.5 589.5 487.5 751.499 487.5 697.5 541.5Z" fill="#325292" fill-rule="evenodd" fill-opacity="0.2"/><path d="M535.5 541.5 589.5 487.5 751.499 487.5 751.499 650.5 697.5 704.5 535.5 704.5ZM535.5 541.5 697.5 541.5 751.499 487.5M697.5 541.5 697.5 704.5" stroke="#FFC000" stroke-width="4.58333" stroke-linecap="butt" stroke-linejoin="miter" stroke-miterlimit="8" stroke-opacity="0.501961" fill="none" fill-rule="evenodd"/><rect x="697.5" y="703.749" width="162.749" height="162.751" fill="#002878" fill-opacity="0.2"/><path d="M860.249 703.749 914.498 649.5 914.498 812.251 860.249 866.5Z" fill="#002060" fill-rule="evenodd" fill-opacity="0.2"/><path d="M697.5 703.749 751.75 649.5 914.498 649.5 860.249 703.749Z" fill="#325292" fill-rule="evenodd" fill-opacity="0.2"/><path d="M697.5 703.749 751.75 649.5 914.498 649.5 914.498 812.25 860.249 866.5 697.5 866.5ZM697.5 703.749 860.249 703.749 914.498 649.5M860.249 703.749 860.249 866.5" stroke="#FFC000" stroke-width="4.58333" stroke-linecap="butt" stroke-linejoin="miter" stroke-miterlimit="8" stroke-opacity="0.501961" fill="none" fill-rule="evenodd"/><rect x="373.5" y="379.5" width="162" height="162" fill="#002878" fill-opacity="0.2"/><path d="M535.5 379.5 589.5 325.5 589.5 487.5 535.5 541.5Z" fill="#002060" fill-rule="evenodd" fill-opacity="0.2"/><path d="M373.5 379.5 427.5 325.5 589.5 325.5 535.5 379.5Z" fill="#325292" fill-rule="evenodd" fill-opacity="0.2"/><path d="M373.5 379.5 427.5 325.5 589.5 325.5 589.5 487.498 535.501 541.498 373.5 541.498ZM373.5 379.5 535.501 379.5 589.5 325.5M535.501 379.5 535.501 541.498" stroke="#FFC000" stroke-width="4.58333" stroke-linecap="butt" stroke-linejoin="miter" stroke-miterlimit="8" stroke-opacity="0.501961" fill="none" fill-rule="evenodd"/><rect x="535.5" y="379.5" width="162" height="162" fill="#002878" fill-opacity="0.2"/><path d="M697.5 379.5 751.5 325.5 751.5 487.5 697.5 541.5Z" fill="#002060" fill-rule="evenodd" fill-opacity="0.2"/><path d="M535.5 379.5 589.5 325.5 751.5 325.5 697.5 379.5Z" fill="#325292" fill-rule="evenodd" fill-opacity="0.2"/><path d="M535.5 379.5 589.5 325.5 751.5 325.5 751.5 487.498 697.5 541.498 535.5 541.498ZM535.5 379.5 697.5 379.5 751.5 325.5M697.5 379.5 697.5 541.498" stroke="#FFC000" stroke-width="4.58333" stroke-linecap="butt" stroke-linejoin="miter" stroke-miterlimit="8" stroke-opacity="0.501961" fill="none" fill-rule="evenodd"/><rect x="697.5" y="541.75" width="162.75" height="162.75" fill="#002878" fill-opacity="0.2"/><path d="M860.25 541.75 914.5 487.5 914.5 650.25 860.25 704.5Z" fill="#002060" fill-rule="evenodd" fill-opacity="0.2"/><path d="M697.5 541.75 751.75 487.5 914.5 487.5 860.25 541.75Z" fill="#325292" fill-rule="evenodd" fill-opacity="0.2"/><path d="M697.5 541.749 751.749 487.5 914.5 487.5 914.5 650.248 860.25 704.498 697.5 704.498ZM697.5 541.749 860.25 541.749 914.5 487.5M860.25 541.749 860.25 704.498" stroke="#FFC000" stroke-width="4.58333" stroke-linecap="butt" stroke-linejoin="miter" stroke-miterlimit="8" stroke-opacity="0.501961" fill="none" fill-rule="evenodd"/><rect x="697.5" y="379.5" width="163" height="162" fill="#002878" fill-opacity="0.2"/><path d="M860.5 379.5 914.5 325.5 914.5 487.5 860.5 541.5Z" fill="#002060" fill-rule="evenodd" fill-opacity="0.2"/><path d="M697.5 379.5 751.5 325.5 914.5 325.5 860.5 379.5Z" fill="#325292" fill-rule="evenodd" fill-opacity="0.2"/><path d="M697.5 379.5 751.5 325.5 914.5 325.5 914.5 487.5 860.5 541.5 697.5 541.5ZM697.5 379.5 860.5 379.5 914.5 325.5M860.5 379.5 860.5 541.5" stroke="#FFC000" stroke-width="4.58333" stroke-linecap="butt" stroke-linejoin="miter" stroke-miterlimit="8" stroke-opacity="0.501961" fill="none" fill-rule="evenodd"/><rect x="319.5" y="758.5" width="162" height="163" fill="#002878" fill-opacity="0.2"/><path d="M481.5 758.5 535.5 704.5 535.5 867.5 481.5 921.5Z" fill="#002060" fill-rule="evenodd" fill-opacity="0.2"/><path d="M319.5 758.5 373.5 704.5 535.5 704.5 481.5 758.5Z" fill="#325292" fill-rule="evenodd" fill-opacity="0.2"/><path d="M319.5 758.5 373.5 704.5 535.5 704.5 535.5 867.5 481.5 921.5 319.5 921.5ZM319.5 758.5 481.5 758.5 535.5 704.5M481.5 758.5 481.5 921.5" stroke="#FFC000" stroke-width="4.58333" stroke-linecap="butt" stroke-linejoin="miter" stroke-miterlimit="8" stroke-opacity="0.501961" fill="none" fill-rule="evenodd"/><rect x="481.5" y="758.5" width="162" height="163" fill="#002878" fill-opacity="0.2"/><path d="M643.5 758.5 697.5 704.5 697.5 867.5 643.5 921.5Z" fill="#002060" fill-rule="evenodd" fill-opacity="0.2"/><path d="M481.5 758.5 535.5 704.5 697.5 704.5 643.5 758.5Z" fill="#325292" fill-rule="evenodd" fill-opacity="0.2"/><path d="M481.5 758.5 535.5 704.5 697.5 704.5 697.5 867.5 643.5 921.5 481.5 921.5ZM481.5 758.5 643.5 758.5 697.5 704.5M643.5 758.5 643.5 921.5" stroke="#FFC000" stroke-width="4.58333" stroke-linecap="butt" stroke-linejoin="miter" stroke-miterlimit="8" stroke-opacity="0.501961" fill="none" fill-rule="evenodd"/><rect x="319.5" y="595.5" width="162" height="163" fill="#002878" fill-opacity="0.2"/><path d="M481.5 595.5 535.5 541.5 535.5 704.5 481.5 758.5Z" fill="#002060" fill-rule="evenodd" fill-opacity="0.2"/><path d="M319.5 595.5 373.5 541.5 535.5 541.5 481.5 595.5Z" fill="#325292" fill-rule="evenodd" fill-opacity="0.2"/><path d="M319.5 595.5 373.5 541.5 535.5 541.5 535.5 704.5 481.5 758.5 319.5 758.5ZM319.5 595.5 481.5 595.5 535.5 541.5M481.5 595.5 481.5 758.5" stroke="#FFC000" stroke-width="4.58333" stroke-linecap="butt" stroke-linejoin="miter" stroke-miterlimit="8" stroke-opacity="0.501961" fill="none" fill-rule="evenodd"/><rect x="319.5" y="433.5" width="162" height="163" fill="#002878" fill-opacity="0.2"/><path d="M481.499 433.5 535.499 379.5 535.499 542.5 481.499 596.5Z" fill="#002060" fill-rule="evenodd" fill-opacity="0.2"/><path d="M319.5 433.5 373.5 379.5 535.499 379.5 481.499 433.5Z" fill="#325292" fill-rule="evenodd" fill-opacity="0.2"/><path d="M319.5 433.5 373.5 379.5 535.499 379.5 535.499 542.5 481.499 596.5 319.5 596.5ZM319.5 433.5 481.499 433.5 535.499 379.5M481.499 433.5 481.499 596.5" stroke="#FFC000" stroke-width="4.58333" stroke-linecap="butt" stroke-linejoin="miter" stroke-miterlimit="8" stroke-opacity="0.501961" fill="none" fill-rule="evenodd"/><rect x="481.5" y="595.5" width="162" height="163" fill="#002878" fill-opacity="0.2"/><path d="M643.5 595.5 697.5 541.5 697.5 704.5 643.5 758.5Z" fill="#002060" fill-rule="evenodd" fill-opacity="0.2"/><path d="M481.5 595.5 535.5 541.5 697.5 541.5 643.5 595.5Z" fill="#325292" fill-rule="evenodd" fill-opacity="0.2"/><path d="M481.5 595.5 535.5 541.5 697.5 541.5 697.5 704.5 643.5 758.5 481.5 758.5ZM481.5 595.5 643.5 595.5 697.5 541.5M643.5 595.5 643.5 758.5" stroke="#FFC000" stroke-width="4.58333" stroke-linecap="butt" stroke-linejoin="miter" stroke-miterlimit="8" stroke-opacity="0.501961" fill="none" fill-rule="evenodd"/><rect x="643.5" y="758.749" width="162.749" height="162.751" fill="#002878" fill-opacity="0.2"/><path d="M806.249 758.749 860.498 704.5 860.498 867.251 806.249 921.5Z" fill="#002060" fill-rule="evenodd" fill-opacity="0.2"/><path d="M643.5 758.749 697.75 704.5 860.498 704.5 806.249 758.749Z" fill="#325292" fill-rule="evenodd" fill-opacity="0.2"/><path d="M643.5 758.749 697.75 704.5 860.498 704.5 860.498 867.25 806.249 921.5 643.5 921.5ZM643.5 758.749 806.249 758.749 860.498 704.5M806.249 758.749 806.249 921.5" stroke="#FFC000" stroke-width="4.58333" stroke-linecap="butt" stroke-linejoin="miter" stroke-miterlimit="8" stroke-opacity="0.501961" fill="none" fill-rule="evenodd"/><rect x="643.5" y="595.749" width="162.749" height="162.751" fill="#002878" fill-opacity="0.2"/><path d="M806.249 595.749 860.498 541.5 860.498 704.251 806.249 758.5Z" fill="#002060" fill-rule="evenodd" fill-opacity="0.2"/><path d="M643.5 595.749 697.75 541.5 860.498 541.5 806.249 595.749Z" fill="#325292" fill-rule="evenodd" fill-opacity="0.2"/><path d="M643.5 595.749 697.75 541.5 860.498 541.5 860.498 704.251 806.249 758.5 643.5 758.5ZM643.5 595.749 806.249 595.749 860.498 541.5M806.249 595.749 806.249 758.5" stroke="#FFC000" stroke-width="4.58333" stroke-linecap="butt" stroke-linejoin="miter" stroke-miterlimit="8" stroke-opacity="0.501961" fill="none" fill-rule="evenodd"/><rect x="481.5" y="433.5" width="162" height="163" fill="#002878" fill-opacity="0.2"/><path d="M643.5 433.5 697.5 379.5 697.5 542.5 643.5 596.5Z" fill="#002060" fill-rule="evenodd" fill-opacity="0.2"/><path d="M481.5 433.5 535.5 379.5 697.5 379.5 643.5 433.5Z" fill="#325292" fill-rule="evenodd" fill-opacity="0.2"/><path d="M481.5 433.5 535.5 379.5 697.5 379.5 697.5 542.5 643.5 596.5 481.5 596.5ZM481.5 433.5 643.5 433.5 697.5 379.5M643.5 433.5 643.5 596.5" stroke="#FFC000" stroke-width="4.58333" stroke-linecap="butt" stroke-linejoin="miter" stroke-miterlimit="8" stroke-opacity="0.501961" fill="none" fill-rule="evenodd"/><rect x="643.5" y="433.75" width="162.75" height="162.75" fill="#002878" fill-opacity="0.2"/><path d="M806.25 433.75 860.5 379.5 860.5 542.25 806.25 596.5Z" fill="#002060" fill-rule="evenodd" fill-opacity="0.2"/><path d="M643.5 433.75 697.75 379.5 860.5 379.5 806.25 433.75Z" fill="#325292" fill-rule="evenodd" fill-opacity="0.2"/><path d="M643.5 433.75 697.75 379.5 860.5 379.5 860.5 542.248 806.25 596.498 643.5 596.498ZM643.5 433.75 806.25 433.75 860.5 379.5M806.25 433.75 806.25 596.498" stroke="#FFC000" stroke-width="4.58333" stroke-linecap="butt" stroke-linejoin="miter" stroke-miterlimit="8" stroke-opacity="0.501961" fill="none" fill-rule="evenodd"/><rect x="264.5" y="812.75" width="162.75" height="162.75" fill="#002878" fill-opacity="0.2"/><path d="M427.25 812.75 481.5 758.5 481.5 921.25 427.25 975.501Z" fill="#002060" fill-rule="evenodd" fill-opacity="0.2"/><path d="M264.5 812.75 318.75 758.5 481.5 758.5 427.25 812.75Z" fill="#325292" fill-rule="evenodd" fill-opacity="0.2"/><path d="M264.5 812.75 318.749 758.5 481.5 758.5 481.5 921.249 427.251 975.498 264.5 975.498ZM264.5 812.75 427.251 812.75 481.5 758.5M427.251 812.75 427.251 975.498" stroke="#FFC000" stroke-width="4.58333" stroke-linecap="butt" stroke-linejoin="miter" stroke-miterlimit="8" stroke-opacity="0.501961" fill="none" fill-rule="evenodd"/><rect x="427.5" y="812.5" width="162" height="163" fill="#002878" fill-opacity="0.2"/><path d="M589.5 812.5 643.5 758.5 643.5 921.5 589.5 975.5Z" fill="#002060" fill-rule="evenodd" fill-opacity="0.2"/><path d="M427.5 812.5 481.5 758.5 643.5 758.5 589.5 812.5Z" fill="#325292" fill-rule="evenodd" fill-opacity="0.2"/><path d="M427.5 812.5 481.5 758.5 643.5 758.5 643.5 921.5 589.5 975.5 427.5 975.5ZM427.5 812.5 589.5 812.5 643.5 758.5M589.5 812.5 589.5 975.5" stroke="#FFC000" stroke-width="4.58333" stroke-linecap="butt" stroke-linejoin="miter" stroke-miterlimit="8" stroke-opacity="0.501961" fill="none" fill-rule="evenodd"/><rect x="264.5" y="650.5" width="163" height="162" fill="#002878" fill-opacity="0.2"/><path d="M427.5 650.5 481.5 596.5 481.5 758.5 427.5 812.5Z" fill="#002060" fill-rule="evenodd" fill-opacity="0.2"/><path d="M264.5 650.5 318.5 596.5 481.5 596.5 427.5 650.5Z" fill="#325292" fill-rule="evenodd" fill-opacity="0.2"/><path d="M264.5 650.5 318.5 596.5 481.5 596.5 481.5 758.5 427.5 812.5 264.5 812.5ZM264.5 650.5 427.5 650.5 481.5 596.5M427.5 650.5 427.5 812.5" stroke="#FFC000" stroke-width="4.58333" stroke-linecap="butt" stroke-linejoin="miter" stroke-miterlimit="8" stroke-opacity="0.501961" fill="none" fill-rule="evenodd"/><rect x="589.5" y="812.75" width="162.75" height="162.75" fill="#002878" fill-opacity="0.2"/><path d="M752.25 812.75 806.5 758.5 806.5 921.25 752.25 975.5Z" fill="#002060" fill-rule="evenodd" fill-opacity="0.2"/><path d="M589.5 812.75 643.75 758.5 806.5 758.5 752.25 812.75Z" fill="#325292" fill-rule="evenodd" fill-opacity="0.2"/><path d="M589.5 812.75 643.75 758.5 806.5 758.5 806.5 921.248 752.25 975.498 589.5 975.498ZM589.5 812.75 752.25 812.75 806.5 758.5M752.25 812.75 752.25 975.498" stroke="#FFC000" stroke-width="4.58333" stroke-linecap="butt" stroke-linejoin="miter" stroke-miterlimit="8" stroke-opacity="0.501961" fill="none" fill-rule="evenodd"/><rect x="427.5" y="649.5" width="162" height="163" fill="#002878" fill-opacity="0.2"/><path d="M589.5 649.5 643.5 595.5 643.5 758.5 589.5 812.5Z" fill="#002060" fill-rule="evenodd" fill-opacity="0.2"/><path d="M427.5 649.5 481.5 595.5 643.5 595.5 589.5 649.5Z" fill="#325292" fill-rule="evenodd" fill-opacity="0.2"/><path d="M427.5 649.5 481.5 595.5 643.5 595.5 643.5 758.5 589.5 812.5 427.5 812.5ZM427.5 649.5 589.5 649.5 643.5 595.5M589.5 649.5 589.5 812.5" stroke="#FFC000" stroke-width="4.58333" stroke-linecap="butt" stroke-linejoin="miter" stroke-miterlimit="8" stroke-opacity="0.501961" fill="none" fill-rule="evenodd"/><rect x="264.5" y="487.75" width="162.75" height="162.75" fill="#002878" fill-opacity="0.2"/><path d="M427.25 487.75 481.5 433.5 481.5 596.25 427.25 650.5Z" fill="#002060" fill-rule="evenodd" fill-opacity="0.2"/><path d="M264.5 487.75 318.75 433.5 481.5 433.5 427.25 487.75Z" fill="#325292" fill-rule="evenodd" fill-opacity="0.2"/><path d="M264.5 487.75 318.749 433.5 481.5 433.5 481.5 596.249 427.251 650.498 264.5 650.498ZM264.5 487.75 427.251 487.75 481.5 433.5M427.251 487.75 427.251 650.498" stroke="#FFC000" stroke-width="4.58333" stroke-linecap="butt" stroke-linejoin="miter" stroke-miterlimit="8" stroke-opacity="0.501961" fill="none" fill-rule="evenodd"/><rect x="589.5" y="649.749" width="162.749" height="162.751" fill="#002878" fill-opacity="0.2"/><path d="M752.249 649.749 806.498 595.5 806.498 758.251 752.249 812.5Z" fill="#002060" fill-rule="evenodd" fill-opacity="0.2"/><path d="M589.5 649.749 643.75 595.5 806.498 595.5 752.249 649.749Z" fill="#325292" fill-rule="evenodd" fill-opacity="0.2"/><path d="M589.5 649.749 643.75 595.5 806.498 595.5 806.498 758.251 752.249 812.5 589.5 812.5ZM589.5 649.749 752.249 649.749 806.498 595.5M752.249 649.749 752.249 812.5" stroke="#FFC000" stroke-width="4.58333" stroke-linecap="butt" stroke-linejoin="miter" stroke-miterlimit="8" stroke-opacity="0.501961" fill="none" fill-rule="evenodd"/><rect x="427.5" y="487.5" width="162" height="163" fill="#002878" fill-opacity="0.2"/><path d="M589.5 487.5 643.5 433.5 643.5 596.5 589.5 650.5Z" fill="#002060" fill-rule="evenodd" fill-opacity="0.2"/><path d="M427.5 487.5 481.5 433.5 643.5 433.5 589.5 487.5Z" fill="#325292" fill-rule="evenodd" fill-opacity="0.2"/><path d="M427.5 487.5 481.5 433.5 643.5 433.5 643.5 596.5 589.5 650.5 427.5 650.5ZM427.5 487.5 589.5 487.5 643.5 433.5M589.5 487.5 589.5 650.5" stroke="#FFC000" stroke-width="4.58333" stroke-linecap="butt" stroke-linejoin="miter" stroke-miterlimit="8" stroke-opacity="0.501961" fill="none" fill-rule="evenodd"/><rect x="589.5" y="487.75" width="162.75" height="162.75" fill="#002878" fill-opacity="0.2"/><path d="M752.25 487.75 806.5 433.5 806.5 596.25 752.25 650.5Z" fill="#002060" fill-rule="evenodd" fill-opacity="0.2"/><path d="M589.5 487.75 643.75 433.5 806.5 433.5 752.25 487.75Z" fill="#325292" fill-rule="evenodd" fill-opacity="0.2"/><path d="M589.5 487.749 643.75 433.5 806.5 433.5 806.5 596.248 752.25 650.498 589.5 650.498ZM589.5 487.749 752.25 487.749 806.5 433.5M752.25 487.749 752.25 650.498" stroke="#FFC000" stroke-width="4.58333" stroke-linecap="butt" stroke-linejoin="miter" stroke-miterlimit="8" stroke-opacity="0.501961" fill="none" fill-rule="evenodd"/><text fill="#FFFFFF" fill-opacity="0.74902" font-family="Phosphate,Phosphate_MSFontService,sans-serif" font-style="normal" font-variant="normal" font-weight="400" font-stretch="normal" font-size="202" text-anchor="start" direction="ltr" writing-mode="lr-tb" unicode-bidi="normal" text-decoration="none" transform="matrix(1 0 0 1 367.37 718)">EVG</text><text fill="#FFFFFF" fill-opacity="0.74902" font-family="Phosphate,Phosphate_MSFontService,sans-serif" font-style="normal" font-variant="normal" font-weight="400" font-stretch="normal" font-size="202" text-anchor="start" direction="ltr" writing-mode="lr-tb" unicode-bidi="normal" text-decoration="none" transform="matrix(1 0 0 1 722.235 718)">L</text></g></g></svg>